<svg width="120" height="18" viewBox="0 0 120 18" fill="none" xmlns="http://www.w3.org/2000/svg">
<path d="M10.3624 0.159999C10.7091 0.159999 11.0024 0.246665 11.2424 0.419999C11.4824 0.579999 11.6024 0.779999 11.6024 1.02C11.6024 1.44667 11.4691 1.79333 11.2024 2.06C10.9358 2.31333 10.5558 2.44 10.0624 2.44C9.28909 2.44 8.70242 2.44667 8.30242 2.46C8.27576 2.62 8.15576 3.34 7.94242 4.62C7.70242 6.04667 7.55576 6.92 7.50242 7.24L7.08242 9.86C6.78909 11.82 6.55576 13.46 6.38242 14.78C6.66242 14.7667 7.04242 14.76 7.52242 14.76C8.22909 14.76 8.70909 14.8533 8.96242 15.04C9.21576 15.2267 9.34242 15.5067 9.34242 15.88C9.34242 16.2267 9.20242 16.52 8.92242 16.76C8.65576 17 8.27576 17.12 7.78242 17.12C7.44909 17.12 6.92242 17.1067 6.20242 17.08C5.53576 17.0533 5.09576 17.04 4.88242 17.04C4.04242 17.04 3.12242 17.1133 2.12242 17.26C1.68242 17.3267 1.36909 17.36 1.18242 17.36C0.889089 17.36 0.642422 17.28 0.442422 17.12C0.242422 16.96 0.142422 16.7267 0.142422 16.42C0.142422 15.94 0.355755 15.5667 0.782422 15.3C1.20909 15.0333 1.80909 14.8933 2.58242 14.88L3.52242 14.86L3.58242 14.42C3.90242 12.2867 4.13576 10.78 4.28242 9.9L4.72242 7.28C4.98909 5.73333 5.22909 4.14 5.44242 2.5L3.76242 2.52C3.28242 2.52 2.94909 2.44667 2.76242 2.3C2.58909 2.14 2.50242 1.92 2.50242 1.64C2.50242 0.733333 3.15576 0.246666 4.46242 0.18C5.07576 0.153332 5.82242 0.139999 6.70242 0.139999L10.3624 0.159999ZM11.9793 12.08C11.6593 12.1067 11.3993 12.0133 11.1993 11.8C11.0126 11.5867 10.9193 11.2867 10.9193 10.9C10.9193 10.54 11.006 10.2733 11.1793 10.1C11.366 9.92667 11.6326 9.82667 11.9793 9.8L16.0793 9.4C16.4126 9.37333 16.666 9.46 16.8393 9.66C17.026 9.84667 17.1193 10.1267 17.1193 10.5C17.1193 11.22 16.7726 11.6133 16.0793 11.68L11.9793 12.08ZM33.3257 12.54C33.499 12.54 33.6324 12.62 33.7257 12.78C33.8324 12.94 33.8857 13.16 33.8857 13.44C33.8857 13.96 33.759 14.3733 33.5057 14.68C32.759 15.5733 32.0324 16.2 31.3257 16.56C30.6324 16.92 29.7924 17.1 28.8057 17.1C28.1124 17.1 27.4724 17.0133 26.8857 16.84C26.299 16.6667 25.5857 16.4067 24.7457 16.06C23.9857 15.7267 23.2524 15.4533 22.5457 15.24C21.8657 16.48 20.8457 17.1 19.4857 17.1C18.739 17.1 18.1457 16.9333 17.7057 16.6C17.2524 16.2533 17.0257 15.8133 17.0257 15.28C17.0257 14.6267 17.339 14.0867 17.9657 13.66C18.5924 13.22 19.4257 13 20.4657 13H20.7257L21.0857 7.18C21.1657 5.84667 21.4057 4.74667 21.8057 3.88C22.2057 3.01333 22.759 2.27333 23.4657 1.66C24.079 1.12667 24.779 0.726666 25.5657 0.46C26.3524 0.179999 27.1857 0.039999 28.0657 0.039999C29.5057 0.039999 30.6124 0.413332 31.3857 1.16C32.159 1.90667 32.5457 2.88 32.5457 4.08C32.5457 4.89333 32.399 5.55333 32.1057 6.06C31.8124 6.55333 31.4057 6.8 30.8857 6.8C30.5124 6.8 30.219 6.71333 30.0057 6.54C29.7924 6.35333 29.6857 6.09333 29.6857 5.76C29.6857 5.64 29.7124 5.42 29.7657 5.1C29.8457 4.72667 29.8857 4.39333 29.8857 4.1C29.8857 3.54 29.719 3.1 29.3857 2.78C29.0657 2.44667 28.5724 2.28 27.9057 2.28C26.7324 2.28 25.8257 2.66667 25.1857 3.44C24.5457 4.2 24.139 5.4 23.9657 7.04L23.5057 11.58C23.439 12.22 23.3524 12.7733 23.2457 13.24C24.099 13.3867 25.1657 13.62 26.4457 13.94C27.1924 14.1267 27.7657 14.26 28.1657 14.34C28.5657 14.42 28.919 14.46 29.2257 14.46C29.999 14.46 30.659 14.3333 31.2057 14.08C31.7657 13.8133 32.2924 13.3933 32.7857 12.82C32.9457 12.6333 33.1257 12.54 33.3257 12.54ZM41.2357 17.1C40.7424 17.1 40.389 16.9933 40.1757 16.78C39.9624 16.5533 39.8557 16.1333 39.8557 15.52C39.8557 15.1067 39.8957 14.58 39.9757 13.94C40.069 13.2867 40.2157 12.3933 40.4157 11.26C40.7624 9.16667 41.0357 7.35333 41.2357 5.82C41.3557 4.86 41.4157 4.06 41.4157 3.42C41.4157 2.82 41.1957 2.52 40.7557 2.52C40.409 2.52 39.989 2.7 39.4957 3.06C39.0157 3.40667 38.4824 3.96667 37.8957 4.74C37.709 4.99333 37.5024 5.12 37.2757 5.12C37.089 5.12 36.9224 5.03333 36.7757 4.86C36.6424 4.67333 36.5757 4.46667 36.5757 4.24C36.5757 4.02667 36.6157 3.81333 36.6957 3.6C36.789 3.37333 36.9357 3.12 37.1357 2.84C37.7757 1.94667 38.489 1.26 39.2757 0.779999C40.0624 0.286666 40.849 0.039999 41.6357 0.039999C42.369 0.039999 42.929 0.273333 43.3157 0.74C43.7157 1.20667 43.9157 1.88667 43.9157 2.78C43.9157 3.14 43.8824 3.56667 43.8157 4.06C43.749 4.54 43.689 4.93333 43.6357 5.24C43.5824 5.54667 43.5424 5.76 43.5157 5.88C44.2757 3.70667 45.129 2.19333 46.0757 1.34C47.0224 0.473332 48.0624 0.039999 49.1957 0.039999C50.0624 0.039999 50.7424 0.346666 51.2357 0.959999C51.7424 1.57333 51.9957 2.44 51.9957 3.56C51.9957 4 51.9357 4.54667 51.8157 5.2C52.4824 3.36 53.2624 2.04 54.1557 1.24C55.049 0.439999 56.0757 0.039999 57.2357 0.039999C58.169 0.039999 58.8824 0.339999 59.3757 0.939999C59.8824 1.54 60.1357 2.38 60.1357 3.46C60.1357 4.04667 60.049 4.76 59.8757 5.6L58.6557 11.32C58.5224 11.9867 58.4557 12.56 58.4557 13.04C58.4557 13.6 58.5824 14.02 58.8357 14.3C59.1024 14.58 59.469 14.72 59.9357 14.72C60.3757 14.72 60.8024 14.5733 61.2157 14.28C61.6424 13.9867 62.1424 13.5 62.7157 12.82C62.8757 12.6333 63.0557 12.54 63.2557 12.54C63.429 12.54 63.5624 12.62 63.6557 12.78C63.7624 12.94 63.8157 13.16 63.8157 13.44C63.8157 13.96 63.689 14.3733 63.4357 14.68C62.7424 15.52 62.0557 16.1333 61.3757 16.52C60.6957 16.9067 59.9824 17.1 59.2357 17.1C58.1024 17.1 57.2157 16.7667 56.5757 16.1C55.9357 15.42 55.6157 14.5133 55.6157 13.38C55.6157 12.5933 55.7757 11.4533 56.0957 9.96L56.8957 6.3C56.9224 6.18 56.969 5.96667 57.0357 5.66C57.1024 5.35333 57.1557 5.06667 57.1957 4.8C57.2357 4.52 57.2557 4.24667 57.2557 3.98C57.2557 3.51333 57.1624 3.16667 56.9757 2.94C56.8024 2.7 56.549 2.58 56.2157 2.58C55.589 2.58 54.929 2.98667 54.2357 3.8C53.5557 4.6 52.9024 5.93333 52.2757 7.8C51.6624 9.66667 51.1624 12.0933 50.7757 15.08C50.6824 15.88 50.5157 16.42 50.2757 16.7C50.049 16.9667 49.6757 17.1 49.1557 17.1C48.7024 17.1 48.369 16.9933 48.1557 16.78C47.9557 16.5667 47.8557 16.1667 47.8557 15.58C47.8557 15.0333 47.929 14.32 48.0757 13.44C48.2224 12.5467 48.409 11.5 48.6357 10.3C49.249 7.07333 49.5557 4.99333 49.5557 4.06C49.5557 3.55333 49.4557 3.18 49.2557 2.94C49.069 2.7 48.7824 2.58 48.3957 2.58C47.7424 2.58 47.069 2.95333 46.3757 3.7C45.6824 4.43333 45.0024 5.74667 44.3357 7.64C43.6824 9.52 43.1357 12.0667 42.6957 15.28C42.6024 15.96 42.4624 16.4333 42.2757 16.7C42.1024 16.9667 41.7557 17.1 41.2357 17.1ZM67.8841 17.1C66.7641 17.1 65.9175 16.7933 65.3441 16.18C64.7708 15.5533 64.4841 14.72 64.4841 13.68C64.4841 13.0933 64.5708 12.38 64.7441 11.54L65.9841 5.82C66.0108 5.71333 66.0708 5.42 66.1641 4.94C66.2708 4.46 66.3241 3.94 66.3241 3.38C66.3241 3.06 66.2575 2.82 66.1241 2.66C66.0041 2.5 65.8375 2.42 65.6241 2.42C65.2241 2.42 64.7575 2.61333 64.2241 3C63.6908 3.37333 63.1308 3.95333 62.5441 4.74C62.3575 4.99333 62.1508 5.12 61.9241 5.12C61.7375 5.12 61.5708 5.03333 61.4241 4.86C61.2908 4.67333 61.2241 4.46667 61.2241 4.24C61.2241 3.82667 61.4108 3.36 61.7841 2.84C63.1441 0.973333 64.7375 0.039999 66.5641 0.039999C67.3775 0.039999 68.0108 0.286666 68.4641 0.779999C68.9308 1.27333 69.1641 2 69.1641 2.96C69.1641 3.64 69.1175 4.26667 69.0241 4.84C68.9308 5.41333 68.7708 6.19333 68.5441 7.18L67.7241 10.84C67.6975 10.96 67.6508 11.1733 67.5841 11.48C67.5175 11.7867 67.4641 12.08 67.4241 12.36C67.3841 12.6267 67.3641 12.8933 67.3641 13.16C67.3641 13.5867 67.4841 13.9267 67.7241 14.18C67.9641 14.4333 68.3041 14.56 68.7441 14.56C69.5441 14.56 70.3508 14.1333 71.1641 13.28C71.9908 12.4267 72.7508 11.0533 73.4441 9.16C74.1508 7.25333 74.6975 4.82 75.0841 1.86C75.1775 1.18 75.3108 0.706666 75.4841 0.439999C75.6708 0.173332 76.0241 0.039999 76.5441 0.039999C77.0108 0.039999 77.3575 0.179999 77.5841 0.46C77.8108 0.739999 77.9241 1.19333 77.9241 1.82C77.9241 2.18 77.8775 2.65333 77.7841 3.24C77.7041 3.82667 77.5775 4.64667 77.4041 5.7C77.0441 7.74 76.7575 9.61333 76.5441 11.32C76.4375 12.0933 76.3841 12.6667 76.3841 13.04C76.3841 13.5867 76.5041 14.0067 76.7441 14.3C76.9975 14.58 77.3308 14.72 77.7441 14.72C78.1841 14.72 78.6108 14.5733 79.0241 14.28C79.4508 13.9867 79.9508 13.5 80.5241 12.82C80.6841 12.6333 80.8641 12.54 81.0641 12.54C81.2375 12.54 81.3708 12.62 81.4641 12.78C81.5708 12.94 81.6241 13.16 81.6241 13.44C81.6241 13.96 81.4975 14.3733 81.2441 14.68C80.5508 15.52 79.8641 16.1333 79.1841 16.52C78.5041 16.9067 77.7908 17.1 77.0441 17.1C75.9375 17.1 75.0908 16.82 74.5041 16.26C73.9175 15.6867 73.6241 14.9467 73.6241 14.04C73.6241 13.5333 73.7308 12.5467 73.9441 11.08C73.2775 13.04 72.4308 14.5333 71.4041 15.56C70.3908 16.5867 69.2175 17.1 67.8841 17.1ZM85.5771 17.16C83.8038 17.16 82.3838 16.8267 81.3171 16.16C80.2504 15.48 79.7171 14.4467 79.7171 13.06C79.7171 12.3267 79.8438 11.7667 80.0971 11.38C80.3504 10.9933 80.7238 10.8 81.2171 10.8C81.5771 10.8 81.8704 10.8933 82.0971 11.08C82.3238 11.2667 82.4371 11.5067 82.4371 11.8C82.4371 12.0667 82.4171 12.3 82.3771 12.5C82.3771 12.5533 82.3638 12.6467 82.3371 12.78C82.3238 12.9133 82.3171 13.0533 82.3171 13.2C82.3171 13.8 82.6171 14.2467 83.2171 14.54C83.8304 14.8333 84.6838 14.98 85.7771 14.98C86.9104 14.98 87.7971 14.78 88.4371 14.38C89.0771 13.9667 89.3971 13.3933 89.3971 12.66C89.3971 12.2067 89.2504 11.82 88.9571 11.5C88.6638 11.1667 88.2971 10.8933 87.8571 10.68C87.4171 10.4533 86.7971 10.18 85.9971 9.86C84.9704 9.46 84.1304 9.08 83.4771 8.72C82.8371 8.36 82.2838 7.87333 81.8171 7.26C81.3638 6.63333 81.1371 5.86 81.1371 4.94C81.1371 3.98 81.3904 3.12667 81.8971 2.38C82.4171 1.63333 83.1571 1.05333 84.1171 0.64C85.0904 0.226666 86.2304 0.0199993 87.5371 0.0199993C88.5104 0.0199993 89.4038 0.166666 90.2171 0.46C91.0304 0.739999 91.6771 1.17333 92.1571 1.76C92.6504 2.34667 92.8971 3.06667 92.8971 3.92C92.8971 4.76 92.7704 5.39333 92.5171 5.82C92.2638 6.24667 91.8904 6.46 91.3971 6.46C91.0504 6.46 90.7571 6.35333 90.5171 6.14C90.2904 5.92667 90.1771 5.67333 90.1771 5.38C90.1771 5.12667 90.1971 4.89333 90.2371 4.68C90.2771 4.28 90.2971 4.02667 90.2971 3.92C90.2971 3.36 90.0238 2.93333 89.4771 2.64C88.9304 2.34667 88.2504 2.2 87.4371 2.2C86.2904 2.2 85.4104 2.41333 84.7971 2.84C84.1971 3.25333 83.8971 3.84 83.8971 4.6C83.8971 5.10667 84.0504 5.54 84.3571 5.9C84.6771 6.26 85.0704 6.56 85.5371 6.8C86.0038 7.04 86.6571 7.32667 87.4971 7.66C88.5104 8.07333 89.3238 8.44667 89.9371 8.78C90.5504 9.11333 91.0704 9.56667 91.4971 10.14C91.9371 10.7133 92.1571 11.42 92.1571 12.26C92.1571 13.8333 91.5571 15.0467 90.3571 15.9C89.1704 16.74 87.5771 17.16 85.5771 17.16ZM102.784 0.159999C103.131 0.159999 103.424 0.246665 103.664 0.419999C103.904 0.579999 104.024 0.779999 104.024 1.02C104.024 1.44667 103.891 1.79333 103.624 2.06C103.358 2.31333 102.978 2.44 102.484 2.44C101.711 2.44 101.124 2.44667 100.724 2.46C100.698 2.62 100.578 3.34 100.364 4.62C100.124 6.04667 99.9776 6.92 99.9243 7.24L99.5043 9.86C99.211 11.82 98.9776 13.46 98.8043 14.78C99.0843 14.7667 99.4643 14.76 99.9443 14.76C100.651 14.76 101.131 14.8533 101.384 15.04C101.638 15.2267 101.764 15.5067 101.764 15.88C101.764 16.2267 101.624 16.52 101.344 16.76C101.078 17 100.698 17.12 100.204 17.12C99.871 17.12 99.3443 17.1067 98.6243 17.08C97.9576 17.0533 97.5176 17.04 97.3043 17.04C96.4643 17.04 95.5443 17.1133 94.5443 17.26C94.1043 17.3267 93.791 17.36 93.6043 17.36C93.311 17.36 93.0643 17.28 92.8643 17.12C92.6643 16.96 92.5643 16.7267 92.5643 16.42C92.5643 15.94 92.7776 15.5667 93.2043 15.3C93.631 15.0333 94.231 14.8933 95.0043 14.88L95.9443 14.86L96.0043 14.42C96.3243 12.2867 96.5576 10.78 96.7043 9.9L97.1443 7.28C97.411 5.73333 97.651 4.14 97.8643 2.5L96.1843 2.52C95.7043 2.52 95.371 2.44667 95.1843 2.3C95.011 2.14 94.9243 1.92 94.9243 1.64C94.9243 0.733333 95.5776 0.246666 96.8843 0.18C97.4976 0.153332 98.2443 0.139999 99.1243 0.139999L102.784 0.159999ZM111.867 17.1C110.28 17.1 108.9 16.8133 107.727 16.24C106.553 15.6533 105.653 14.8267 105.027 13.76C104.4 12.6933 104.087 11.4533 104.087 10.04C104.087 8.08 104.453 6.34 105.187 4.82C105.933 3.3 106.94 2.12667 108.207 1.3C109.473 0.459999 110.88 0.039999 112.427 0.039999C113.867 0.039999 114.96 0.413332 115.707 1.16C116.453 1.89333 116.827 2.86667 116.827 4.08C116.827 4.89333 116.68 5.54667 116.387 6.04C116.107 6.53333 115.7 6.78 115.167 6.78C114.793 6.78 114.5 6.69333 114.287 6.52C114.073 6.34667 113.967 6.09333 113.967 5.76C113.967 5.64 113.993 5.42 114.047 5.1C114.127 4.7 114.167 4.38 114.167 4.14C114.167 2.92667 113.52 2.32 112.227 2.32C111.347 2.32 110.507 2.60667 109.707 3.18C108.907 3.75333 108.26 4.6 107.767 5.72C107.273 6.82667 107.027 8.14667 107.027 9.68C107.027 11.28 107.473 12.52 108.367 13.4C109.26 14.2667 110.58 14.7 112.327 14.7C113.193 14.7 114.067 14.5933 114.947 14.38C115.84 14.1533 116.827 13.8133 117.907 13.36C118.107 13.28 118.273 13.24 118.407 13.24C118.62 13.24 118.78 13.32 118.887 13.48C118.993 13.64 119.047 13.8467 119.047 14.1C119.047 14.9133 118.607 15.5133 117.727 15.9C116.78 16.3133 115.793 16.62 114.767 16.82C113.753 17.0067 112.787 17.1 111.867 17.1Z" fill="black"/>
</svg>
